<svg width="117" height="50" viewBox="0 0 117 50" fill="none" xmlns="http://www.w3.org/2000/svg">
<circle cx="24.9998" cy="25.001" r="25" fill="#85DF99"/>
<path d="M32.4158 19.513L28.8318 31.001H27.2958L24.4958 22.481C24.4318 22.3103 24.3758 22.105 24.3278 21.865C24.2692 22.1103 24.2132 22.3156 24.1598 22.481L21.3278 31.001H19.7998L16.2158 19.513H17.6398C17.7892 19.513 17.9145 19.5503 18.0158 19.625C18.1172 19.6943 18.1838 19.7903 18.2158 19.913L20.4798 27.601C20.5225 27.7503 20.5598 27.913 20.5918 28.089C20.6292 28.265 20.6665 28.449 20.7038 28.641C20.7412 28.449 20.7785 28.265 20.8158 28.089C20.8585 27.913 20.9065 27.7503 20.9598 27.601L23.5518 19.913C23.5838 19.8063 23.6505 19.713 23.7518 19.633C23.8585 19.553 23.9838 19.513 24.1278 19.513H24.6158C24.7652 19.513 24.8878 19.5503 24.9838 19.625C25.0798 19.6996 25.1492 19.7956 25.1918 19.913L27.7758 27.601C27.8718 27.8943 27.9572 28.2276 28.0318 28.601C28.0958 28.233 28.1652 27.8996 28.2398 27.601L30.5118 19.913C30.5385 19.8063 30.6052 19.713 30.7118 19.633C30.8185 19.553 30.9438 19.513 31.0878 19.513H32.4158ZM38.1829 26.033C38.1829 25.7236 38.1376 25.4383 38.0469 25.177C37.9616 24.9156 37.8336 24.689 37.6629 24.497C37.4923 24.305 37.2843 24.1556 37.0389 24.049C36.7936 23.9423 36.5109 23.889 36.1909 23.889C35.5349 23.889 35.0176 24.0783 34.6389 24.457C34.2656 24.8356 34.0283 25.361 33.9269 26.033H38.1829ZM39.4709 29.841C39.2789 30.065 39.0576 30.2596 38.8069 30.425C38.5563 30.585 38.2896 30.7156 38.0069 30.817C37.7243 30.9183 37.4309 30.993 37.1269 31.041C36.8283 31.089 36.5323 31.113 36.2389 31.113C35.6789 31.113 35.1589 31.0196 34.6789 30.833C34.2043 30.641 33.7909 30.3636 33.4389 30.001C33.0923 29.633 32.8203 29.1796 32.6229 28.641C32.4309 28.097 32.3349 27.473 32.3349 26.769C32.3349 26.2036 32.4229 25.6783 32.5989 25.193C32.7749 24.7023 33.0256 24.2756 33.3509 23.913C33.6816 23.5503 34.0843 23.265 34.5589 23.057C35.0336 22.849 35.5669 22.745 36.1589 22.745C36.6549 22.745 37.1109 22.8276 37.5269 22.993C37.9483 23.153 38.3109 23.3876 38.6149 23.697C38.9189 24.0063 39.1563 24.3876 39.3269 24.841C39.5029 25.2943 39.5909 25.8116 39.5909 26.393C39.5909 26.633 39.5643 26.7956 39.5109 26.881C39.4576 26.961 39.3589 27.001 39.2149 27.001H33.8869C33.9029 27.4863 33.9723 27.9103 34.0949 28.273C34.2176 28.6303 34.3856 28.929 34.5989 29.169C34.8176 29.409 35.0763 29.5876 35.3749 29.705C35.6736 29.8223 36.0069 29.881 36.3749 29.881C36.7216 29.881 37.0203 29.841 37.2709 29.761C37.5269 29.681 37.7456 29.5956 37.9269 29.505C38.1136 29.409 38.2683 29.321 38.3909 29.241C38.5189 29.161 38.6309 29.121 38.7269 29.121C38.8549 29.121 38.9536 29.169 39.0229 29.265L39.4709 29.841ZM49.6826 27.393C49.0479 27.4143 48.5092 27.465 48.0666 27.545C47.6239 27.6196 47.2639 27.721 46.9866 27.849C46.7092 27.977 46.5092 28.129 46.3866 28.305C46.2639 28.4756 46.2026 28.6676 46.2026 28.881C46.2026 29.0836 46.2346 29.2596 46.2986 29.409C46.3679 29.553 46.4586 29.673 46.5706 29.769C46.6879 29.8596 46.8239 29.9263 46.9786 29.969C47.1332 30.0116 47.3012 30.033 47.4826 30.033C47.7226 30.033 47.9412 30.009 48.1386 29.961C48.3412 29.913 48.5306 29.8463 48.7066 29.761C48.8826 29.6703 49.0506 29.561 49.2106 29.433C49.3706 29.305 49.5279 29.1583 49.6826 28.993V27.393ZM45.1066 24.009C45.5599 23.577 46.0506 23.2543 46.5786 23.041C47.1119 22.8276 47.6959 22.721 48.3306 22.721C48.7946 22.721 49.2052 22.7983 49.5626 22.953C49.9199 23.1023 50.2212 23.313 50.4666 23.585C50.7119 23.857 50.8959 24.1823 51.0186 24.561C51.1466 24.9396 51.2106 25.3583 51.2106 25.817V31.001H50.5146C50.3599 31.001 50.2426 30.977 50.1626 30.929C50.0826 30.8756 50.0186 30.7796 49.9706 30.641L49.8026 29.929C49.5946 30.121 49.3892 30.2916 49.1866 30.441C48.9839 30.585 48.7706 30.7103 48.5466 30.817C48.3279 30.9183 48.0932 30.9956 47.8426 31.049C47.5919 31.1023 47.3146 31.129 47.0106 31.129C46.6906 31.129 46.3892 31.0863 46.1066 31.001C45.8292 30.9103 45.5866 30.7743 45.3786 30.593C45.1706 30.4116 45.0052 30.185 44.8826 29.913C44.7652 29.641 44.7066 29.3236 44.7066 28.961C44.7066 28.641 44.7919 28.3343 44.9626 28.041C45.1386 27.7423 45.4212 27.4756 45.8106 27.241C46.2052 27.0063 46.7172 26.8143 47.3466 26.665C47.9812 26.5156 48.7599 26.4303 49.6826 26.409V25.817C49.6826 25.2036 49.5519 24.745 49.2906 24.441C49.0292 24.137 48.6452 23.985 48.1386 23.985C47.7972 23.985 47.5092 24.0276 47.2746 24.113C47.0452 24.1983 46.8452 24.2943 46.6746 24.401C46.5092 24.5023 46.3626 24.5956 46.2346 24.681C46.1119 24.7663 45.9839 24.809 45.8506 24.809C45.7439 24.809 45.6506 24.7796 45.5706 24.721C45.4959 24.6623 45.4346 24.593 45.3866 24.513L45.1066 24.009ZM54.7709 24.433C55.0323 23.8996 55.3469 23.481 55.7149 23.177C56.0829 22.873 56.5256 22.721 57.0429 22.721C57.2189 22.721 57.3843 22.7423 57.5389 22.785C57.6989 22.8223 57.8376 22.881 57.9549 22.961L57.8509 24.137C57.8136 24.281 57.7256 24.353 57.5869 24.353C57.5123 24.353 57.4003 24.3396 57.2509 24.313C57.1016 24.281 56.9416 24.265 56.7709 24.265C56.5203 24.265 56.2989 24.3023 56.1069 24.377C55.9149 24.4463 55.7416 24.553 55.5869 24.697C55.4376 24.8356 55.3043 25.009 55.1869 25.217C55.0696 25.4196 54.9603 25.6516 54.8589 25.913V31.001H53.2989V22.873H54.1949C54.3656 22.873 54.4803 22.905 54.5389 22.969C54.6029 23.0276 54.6483 23.1343 54.6749 23.289L54.7709 24.433ZM64.2454 26.033C64.2454 25.7236 64.2001 25.4383 64.1094 25.177C64.0241 24.9156 63.8961 24.689 63.7254 24.497C63.5548 24.305 63.3468 24.1556 63.1014 24.049C62.8561 23.9423 62.5734 23.889 62.2534 23.889C61.5974 23.889 61.0801 24.0783 60.7014 24.457C60.3281 24.8356 60.0908 25.361 59.9894 26.033H64.2454ZM65.5334 29.841C65.3414 30.065 65.1201 30.2596 64.8694 30.425C64.6188 30.585 64.3521 30.7156 64.0694 30.817C63.7868 30.9183 63.4934 30.993 63.1894 31.041C62.8908 31.089 62.5948 31.113 62.3014 31.113C61.7414 31.113 61.2214 31.0196 60.7414 30.833C60.2668 30.641 59.8534 30.3636 59.5014 30.001C59.1548 29.633 58.8828 29.1796 58.6854 28.641C58.4934 28.097 58.3974 27.473 58.3974 26.769C58.3974 26.2036 58.4854 25.6783 58.6614 25.193C58.8374 24.7023 59.0881 24.2756 59.4134 23.913C59.7441 23.5503 60.1468 23.265 60.6214 23.057C61.0961 22.849 61.6294 22.745 62.2214 22.745C62.7174 22.745 63.1734 22.8276 63.5894 22.993C64.0108 23.153 64.3734 23.3876 64.6774 23.697C64.9814 24.0063 65.2188 24.3876 65.3894 24.841C65.5654 25.2943 65.6534 25.8116 65.6534 26.393C65.6534 26.633 65.6268 26.7956 65.5734 26.881C65.5201 26.961 65.4214 27.001 65.2774 27.001H59.9494C59.9654 27.4863 60.0348 27.9103 60.1574 28.273C60.2801 28.6303 60.4481 28.929 60.6614 29.169C60.8801 29.409 61.1388 29.5876 61.4374 29.705C61.7361 29.8223 62.0694 29.881 62.4374 29.881C62.7841 29.881 63.0828 29.841 63.3334 29.761C63.5894 29.681 63.8081 29.5956 63.9894 29.505C64.1761 29.409 64.3308 29.321 64.4534 29.241C64.5814 29.161 64.6934 29.121 64.7894 29.121C64.9174 29.121 65.0161 29.169 65.0854 29.265L65.5334 29.841ZM82.4011 25.257C82.4011 26.1156 82.2624 26.905 81.9851 27.625C81.7131 28.3396 81.3264 28.9583 80.8251 29.481C80.3237 29.9983 79.7237 30.401 79.0251 30.689C78.3264 30.977 77.5504 31.121 76.6971 31.121C75.8491 31.121 75.0731 30.977 74.3691 30.689C73.6704 30.401 73.0704 29.9983 72.5691 29.481C72.0731 28.9583 71.6864 28.3396 71.4091 27.625C71.1317 26.905 70.9931 26.1156 70.9931 25.257C70.9931 24.4036 71.1317 23.617 71.4091 22.897C71.6864 22.177 72.0731 21.5583 72.5691 21.041C73.0704 20.5183 73.6704 20.113 74.3691 19.825C75.0731 19.5316 75.8491 19.385 76.6971 19.385C77.5504 19.385 78.3264 19.5316 79.0251 19.825C79.7237 20.113 80.3237 20.5183 80.8251 21.041C81.3264 21.5583 81.7131 22.177 81.9851 22.897C82.2624 23.617 82.4011 24.4036 82.4011 25.257ZM80.6571 25.257C80.6571 24.5743 80.5637 23.961 80.3771 23.417C80.1904 22.873 79.9237 22.4116 79.5771 22.033C79.2357 21.6543 78.8197 21.3636 78.3291 21.161C77.8437 20.9583 77.2997 20.857 76.6971 20.857C76.0944 20.857 75.5477 20.9583 75.0571 21.161C74.5717 21.3636 74.1557 21.6543 73.8091 22.033C73.4624 22.4116 73.1957 22.873 73.0091 23.417C72.8224 23.961 72.7291 24.5743 72.7291 25.257C72.7291 25.945 72.8224 26.561 73.0091 27.105C73.1957 27.6436 73.4624 28.1023 73.8091 28.481C74.1557 28.8596 74.5717 29.1503 75.0571 29.353C75.5477 29.5503 76.0944 29.649 76.6971 29.649C77.2997 29.649 77.8437 29.5503 78.3291 29.353C78.8197 29.1503 79.2357 28.8596 79.5771 28.481C79.9237 28.1023 80.1904 27.6436 80.3771 27.105C80.5637 26.561 80.6571 25.945 80.6571 25.257ZM85.5286 24.001C85.7046 23.8143 85.8886 23.6436 86.0806 23.489C86.2726 23.3343 86.4752 23.2036 86.6886 23.097C86.9072 22.985 87.1392 22.8996 87.3846 22.841C87.6352 22.777 87.9019 22.745 88.1846 22.745C88.6326 22.745 89.0246 22.8196 89.3606 22.969C89.7019 23.1183 89.9872 23.329 90.2166 23.601C90.4459 23.8676 90.6192 24.1903 90.7366 24.569C90.8539 24.9476 90.9126 25.3663 90.9126 25.825V31.001H89.3446V25.825C89.3446 25.2436 89.2112 24.793 88.9446 24.473C88.6779 24.1476 88.2699 23.985 87.7206 23.985C87.3206 23.985 86.9446 24.081 86.5926 24.273C86.2459 24.4596 85.9232 24.7156 85.6246 25.041V31.001H84.0646V22.873H85.0006C85.2192 22.873 85.3552 22.977 85.4086 23.185L85.5286 24.001ZM94.6177 19.193V31.001H93.0497V19.193H94.6177ZM98.4778 22.873V31.001H96.9178V22.873H98.4778ZM98.7738 20.361C98.7738 20.505 98.7445 20.6436 98.6858 20.777C98.6272 20.905 98.5472 21.0196 98.4458 21.121C98.3498 21.217 98.2352 21.2943 98.1018 21.353C97.9685 21.4063 97.8298 21.433 97.6858 21.433C97.5418 21.433 97.4058 21.4063 97.2778 21.353C97.1498 21.2943 97.0352 21.217 96.9338 21.121C96.8378 21.0196 96.7605 20.905 96.7018 20.777C96.6485 20.6436 96.6218 20.505 96.6218 20.361C96.6218 20.2116 96.6485 20.073 96.7018 19.945C96.7605 19.8116 96.8378 19.697 96.9338 19.601C97.0352 19.4996 97.1498 19.4223 97.2778 19.369C97.4058 19.3103 97.5418 19.281 97.6858 19.281C97.8298 19.281 97.9685 19.3103 98.1018 19.369C98.2352 19.4223 98.3498 19.4996 98.4458 19.601C98.5472 19.697 98.6272 19.8116 98.6858 19.945C98.7445 20.073 98.7738 20.2116 98.7738 20.361ZM102.2 24.001C102.376 23.8143 102.56 23.6436 102.752 23.489C102.944 23.3343 103.147 23.2036 103.36 23.097C103.579 22.985 103.811 22.8996 104.056 22.841C104.307 22.777 104.574 22.745 104.856 22.745C105.304 22.745 105.696 22.8196 106.032 22.969C106.374 23.1183 106.659 23.329 106.888 23.601C107.118 23.8676 107.291 24.1903 107.408 24.569C107.526 24.9476 107.584 25.3663 107.584 25.825V31.001H106.016V25.825C106.016 25.2436 105.883 24.793 105.616 24.473C105.35 24.1476 104.942 23.985 104.392 23.985C103.992 23.985 103.616 24.081 103.264 24.273C102.918 24.4596 102.595 24.7156 102.296 25.041V31.001H100.736V22.873H101.672C101.891 22.873 102.027 22.977 102.08 23.185L102.2 24.001ZM115.074 26.033C115.074 25.7236 115.028 25.4383 114.938 25.177C114.852 24.9156 114.724 24.689 114.554 24.497C114.383 24.305 114.175 24.1556 113.93 24.049C113.684 23.9423 113.402 23.889 113.082 23.889C112.426 23.889 111.908 24.0783 111.53 24.457C111.156 24.8356 110.919 25.361 110.818 26.033H115.074ZM116.362 29.841C116.17 30.065 115.948 30.2596 115.698 30.425C115.447 30.585 115.18 30.7156 114.898 30.817C114.615 30.9183 114.322 30.993 114.018 31.041C113.719 31.089 113.423 31.113 113.13 31.113C112.57 31.113 112.05 31.0196 111.57 30.833C111.095 30.641 110.682 30.3636 110.33 30.001C109.983 29.633 109.711 29.1796 109.514 28.641C109.322 28.097 109.226 27.473 109.226 26.769C109.226 26.2036 109.314 25.6783 109.49 25.193C109.666 24.7023 109.916 24.2756 110.242 23.913C110.572 23.5503 110.975 23.265 111.45 23.057C111.924 22.849 112.458 22.745 113.05 22.745C113.546 22.745 114.002 22.8276 114.418 22.993C114.839 23.153 115.202 23.3876 115.506 23.697C115.81 24.0063 116.047 24.3876 116.218 24.841C116.394 25.2943 116.482 25.8116 116.482 26.393C116.482 26.633 116.455 26.7956 116.402 26.881C116.348 26.961 116.25 27.001 116.106 27.001H110.778C110.794 27.4863 110.863 27.9103 110.986 28.273C111.108 28.6303 111.276 28.929 111.49 29.169C111.708 29.409 111.967 29.5876 112.266 29.705C112.564 29.8223 112.898 29.881 113.266 29.881C113.612 29.881 113.911 29.841 114.162 29.761C114.418 29.681 114.636 29.5956 114.818 29.505C115.004 29.409 115.159 29.321 115.282 29.241C115.41 29.161 115.522 29.121 115.618 29.121C115.746 29.121 115.844 29.169 115.914 29.265L116.362 29.841Z" fill="#071C35"/>
</svg>
